<svg xmlns="http://www.w3.org/2000/svg" viewBox="0 0 335 688" width="335" height="688"><defs><style>
.myRect{
z-index:999;
cursor: pointer;
  pointer-events: auto;
  fill: transparent;
}
.cls-1{fill:#f7f9f9;}.cls-2{fill:#899ba5;}.cls-3{fill:#8aa0a8;opacity:0.4;}</style></defs><rect class="myRect" x="76" y="0" width="85" height="120" onclick="changeSelectedOption('part',0)" />
<rect xmlns="http://www.w3.org/2000/svg" class="myRect" x="67" y="120" width="102" height="90" onclick="changeSelectedOption('part',6)"/>
<rect xmlns="http://www.w3.org/2000/svg" class="myRect" x="67" y="210" width="102" height="60" onclick="changeSelectedOption('part',7)"/>
<rect xmlns="http://www.w3.org/2000/svg" class="myRect" x="67" y="270" width="102" height="30" onclick="changeSelectedOption('part',8)"/>
<rect xmlns="http://www.w3.org/2000/svg" class="myRect" x="67" y="300" width="102" height="260" onclick="changeSelectedOption('part',5)"/>
<rect xmlns="http://www.w3.org/2000/svg" class="myRect" x="0" y="120" width="67" height="220" onclick="changeSelectedOption('part',4)"/>
<rect xmlns="http://www.w3.org/2000/svg" class="myRect" x="169" y="120" width="67" height="220" onclick="changeSelectedOption('part',4)"/><g id="Layer_2" data-name="Layer 2"><g id="art"><path class="cls-1" d="M234.12,307.83l0-.08c-.62-1.17-1.26-2.59-1.94-4.09a54.26,54.26,0,0,0-3.72-7.27c-2.51-3.81-6.33-7.09-9.7-10a6.19,6.19,0,0,1-2.41-4c-1.16-6.48-1.89-14.08-2.67-22.13-.62-6.48-1.26-13.19-2.21-20.3a80.82,80.82,0,0,0-4.54-17.28c-2.17-6.2-4.22-12-4.33-20.43-.06-4.23-.18-13.07-.21-17.31,0-6.1-.58-8.51-1.64-15-1-6-2.85-19.18-2.87-19.29-.23-1.81-.35-4-.47-6.29-.28-5-.59-10.74-2.22-14.69a32.38,32.38,0,0,0-10.93-14c-5.86-4.17-13.87-6.21-18.12-7.06a14.27,14.27,0,0,1-4-1.43c-6.32-3.4-15.48-6.61-20.95-8.53-.93-.33-1.75-.61-2.42-.86A2.93,2.93,0,0,1,136.88,95V81.85a1.79,1.79,0,0,1,.72-1.46,29.59,29.59,0,0,0,11.14-18.88A148.81,148.81,0,0,0,150.55,35c0-20.69-15.6-33.3-31.29-33.76l-.12,0H116.9l-.24,0C101,1.7,85.38,14.31,85.38,35a217.9,217.9,0,0,0,1.81,26.47A28.61,28.61,0,0,0,98.33,80.38a1.84,1.84,0,0,1,.72,1.48V95a2.93,2.93,0,0,1-1.89,2.79c-.67.25-1.49.53-2.42.86-5.47,1.92-14.62,5.13-20.94,8.53a14.39,14.39,0,0,1-4,1.43c-4.26.85-12.26,2.89-18.13,7.06a32.46,32.46,0,0,0-10.93,14c-1.62,4-1.94,9.66-2.21,14.69-.13,2.3-.25,4.48-.48,6.27,0,.13-1.88,13.29-2.87,19.31-1,6.49-1.6,8.89-1.64,15,0,4.24-.15,13.08-.2,17.31-.12,8.38-2.17,14.23-4.34,20.43a80.82,80.82,0,0,0-4.54,17.28c-.94,7.11-1.59,13.82-2.21,20.31-.77,8-1.5,15.64-2.67,22.12a6.19,6.19,0,0,1-2.41,4c-3.37,2.89-7.19,6.17-9.7,10a53.8,53.8,0,0,0-3.72,7.28c-.68,1.49-1.32,2.91-2,4.16s-.86,2.18-.34,3a2.52,2.52,0,0,0,2.22.86c3.43.06,5.55-3.22,6.45-4.63.08-.13.15-.24.21-.32s.27-.43.52-.84C12,304,12.83,302.77,13.41,302A109.72,109.72,0,0,1,9.9,312.4c-1.13,3-3.15,8.46-4.22,11.34-.39,1-.65,1.74-.72,1.95a4.67,4.67,0,0,0,.29,3.4,2.58,2.58,0,0,0,1.59,1.26c1.23.33,3,.19,4.4-2.34.63-1.12,3-7.58,5.48-14.09l.86-2.32,0,0c-.94,3.15-5.15,17.59-5.34,19.52-.09,1-.36,3.71,2.34,4.29A3.43,3.43,0,0,0,18.78,333c.22-.72,1.62-5.64,3-10.4,1-3.65,2.06-7.22,2.52-8.8l.22,0c-.74,3.29-3,13.75-3.4,16.43a3.27,3.27,0,0,0,2.42,3.93c1.76.34,3.46-.91,4.05-3,1.6-5.59,3.06-13.51,3.68-17l.23,0c-.11,1.18-.37,2.94-.63,4.78a81.52,81.52,0,0,0-1,8.37c0,2.92,1.44,3.63,2.69,3.71a3.48,3.48,0,0,0,3.49-3.29c.16-1.21,2.73-15.77,3.94-20.52a47.5,47.5,0,0,0,1.08-6.34,54.54,54.54,0,0,0,.19-6.67c-.11-2.35-.3-6.72.28-9.34,1.24-5.58,4-12.29,6.91-19.4,4.54-11,9.24-22.49,9.76-32.73l.08-1.61a223.5,223.5,0,0,1,5.55-40.29c2-8.75,2.23-12.44,2.39-15.5a21.38,21.38,0,0,1,.18-2.38l.13,0a12.46,12.46,0,0,1,1,2.39c2.88,9.25,7.54,27.25,7.83,32.21.28,4.8.43,11.34.57,17.67.07,3.36.15,6.66.24,9.62.38,12.26-2.19,27.77-3.73,37-.29,1.78-.55,3.29-.72,4.47C69.47,291.22,66.86,314,70,339.75c2.61,32.48,7.6,50.11,10.59,60,1.23,4.09,2.11,7,2.25,9.29a38.73,38.73,0,0,1-.11,7.58c-.16,1-.39,2.4-.66,4-1,6.29-2.62,15.8-2.71,19.71-.3,13.62,1.85,25.21,4.34,36.31,1.05,4.7,2.13,9.55,3.13,15.11.13.74.57,2.34,1.18,4.55a201.43,201.43,0,0,1,4.78,20.32,78.89,78.89,0,0,1,.69,10.91c-.07,2.55-.19,4.49-1.17,6.36-.84,1.58-3.13,2.91-5.79,4.45a43,43,0,0,0-8.24,5.76,3.82,3.82,0,0,0-.91,3.4A5.8,5.8,0,0,0,81,551.83l.11,0c3.78,1.14,7,2.16,9.87,3,10.35,3.21,15.07,4.67,18.28,4.3,3.71-.44,7.46-1.7,8.8-7,1.42,5.31,5.26,6.55,8.72,7a8.57,8.57,0,0,0,1,.06c3.19,0,8-1.48,17.23-4.36,2.83-.88,6.09-1.9,9.87-3l.11,0a5.8,5.8,0,0,0,3.57-4.26,3.79,3.79,0,0,0-.91-3.4,42.66,42.66,0,0,0-8.24-5.76c-2.66-1.54-5-2.87-5.78-4.45-1-1.87-1.11-3.81-1.18-6.36a83,83,0,0,1,.68-10.88,202.73,202.73,0,0,1,4.79-20.35c.61-2.21,1.05-3.81,1.18-4.55,1-5.56,2.09-10.42,3.14-15.11,2.48-11.1,4.63-22.69,4.33-36.31-.09-3.91-1.67-13.42-2.71-19.71-.27-1.63-.5-3-.66-4a38.9,38.9,0,0,1-.1-7.58c.13-2.25,1-5.2,2.25-9.29,3-9.93,8-27.56,10.57-60,3.16-25.81.55-48.58-1.68-63.46-.18-1.18-.43-2.7-.73-4.48-1.53-9.27-4.1-24.77-3.72-37,.09-3,.16-6.26.24-9.62.14-6.33.28-12.87.56-17.67s6.3-28.17,8-32.13l.32-.4c.42,3.55,1.31,7.62,3.13,15.83a222.55,222.55,0,0,1,5.55,40.29l.08,1.61c.53,10.24,5.22,21.67,9.76,32.73,2.92,7.11,5.68,13.82,6.91,19.4.59,2.62.39,7,.28,9.34a54.54,54.54,0,0,0,.19,6.67,46.27,46.27,0,0,0,1.09,6.34c1.2,4.75,3.77,19.31,3.93,20.52a3.5,3.5,0,0,0,3.5,3.29c1.24-.08,2.72-.8,2.68-3.71a83.55,83.55,0,0,0-.95-8.36c-.27-1.85-.52-3.61-.64-4.79l.23,0c.62,3.51,2.07,11.42,3.68,17,.59,2,2.29,3.3,4,3a3.27,3.27,0,0,0,2.42-3.93c-.4-2.81-2.74-13.47-3.4-16.43l.22,0c.45,1.55,1.45,5.05,2.48,8.64,1.37,4.83,2.8,9.83,3,10.56a3.44,3.44,0,0,0,4.15,2.43c2.7-.58,2.44-3.28,2.34-4.29-.18-1.92-4.4-16.38-5.33-19.52l0,0,.87,2.32c2.42,6.52,4.85,13,5.47,14.09,1.41,2.53,3.17,2.67,4.4,2.34a2.52,2.52,0,0,0,1.59-1.26,4.67,4.67,0,0,0,.27-3.47l-.63-1.71c-1.06-2.84-3.14-8.47-4.29-11.51-2-5.32-3-8.58-3.51-10.43.59.81,1.41,2,2.54,3.92.24.41.42.71.51.84s.13.19.21.32c.9,1.4,3,4.63,6.34,4.63h.12a2.49,2.49,0,0,0,2.21-.86C235,310,234.63,309,234.12,307.83ZM118,542a31.91,31.91,0,0,0-.81-3.2,45.5,45.5,0,0,1-2.42-13.17c0-1.63.06-3.44.13-5.74.13-4.31.31-10.21.24-19.09.16-4.71.35-10.21.55-16.62.92-10.65,2.07-31.82,1.75-41.12a182,182,0,0,0-1.61-19.74,109.62,109.62,0,0,1-.9-22.27c.24-4.06.32-8,.37-10.54,0-1.5,0-2.68.09-3,2.47-20.66,2.14-46.45,1.86-68.32-.1-7.42-.19-14.44-.17-21a11.7,11.7,0,0,1,.45-2.72,19.21,19.21,0,0,0,.42-2H118c.1.67.26,1.33.42,2a11.15,11.15,0,0,1,.45,2.64c0,6.6-.08,13.66-.19,21.14-.31,21.76-.66,47.42,1.87,68.25,0,2.71,0,7.64.37,12.76a112.67,112.67,0,0,1-.83,23.36A183.92,183.92,0,0,0,118.52,443c-.32,9.3.83,30.47,1.75,41.07.2,6.45.39,11.95.55,16.61-.07,7.92,0,13.53,0,17.62,0,2.95.06,5.28,0,7.23a46.85,46.85,0,0,1-2.15,13.36A28.83,28.83,0,0,0,118,542Z"/><path class="cls-2" d="M235.24,307.35l0-.09-.05-.08c-.6-1.14-1.23-2.54-1.9-4a55.12,55.12,0,0,0-3.82-7.44c-2.6-4-6.49-7.29-9.92-10.23a5.09,5.09,0,0,1-2-3.34c-1.15-6.43-1.88-14-2.65-22-.62-6.5-1.27-13.22-2.21-20.35a82.55,82.55,0,0,0-4.6-17.52c-2.14-6.1-4.16-11.87-4.27-20,0-3.18-.17-12.86-.2-17.3-.05-6.18-.6-8.63-1.67-15.18-1-6-2.84-19.15-2.86-19.28-.22-1.73-.34-3.89-.46-6.16-.29-5.14-.61-11-2.31-15.1a33.58,33.58,0,0,0-11.35-14.57c-6.05-4.29-14.25-6.39-18.59-7.25a12.83,12.83,0,0,1-3.62-1.32,137.35,137.35,0,0,0-17.47-7.31c-.89-.37-2-.76-3.13-1.11l-.52-.19-2.42-.85A1.72,1.72,0,0,1,138.1,95V82.38a1.7,1.7,0,0,1,.67-1.35A30.59,30.59,0,0,0,150,61.69,149.32,149.32,0,0,0,151.79,35c0-21.41-16.16-34.44-32.4-34.95A1.86,1.86,0,0,0,119,0H116.9a1.86,1.86,0,0,0-.36,0c-16.24.51-32.4,13.55-32.4,35v0A221.66,221.66,0,0,0,86,61.64,29.47,29.47,0,0,0,97.16,81a1.71,1.71,0,0,1,.67,1.35V95a1.71,1.71,0,0,1-1.08,1.64l-2.41.85-.52.19a32.87,32.87,0,0,0-3.14,1.11,137.22,137.22,0,0,0-17.46,7.31,12.94,12.94,0,0,1-3.62,1.32c-4.35.86-12.55,3-18.59,7.25a33.6,33.6,0,0,0-11.36,14.57c-1.7,4.14-2,10-2.3,15.1-.13,2.27-.25,4.43-.47,6.19,0,.1-1.88,13.24-2.86,19.25-1.07,6.55-1.62,9-1.66,15.18,0,4.44-.16,14.12-.21,17.3-.11,8.18-2.13,13.95-4.26,20a82,82,0,0,0-4.6,17.52c-.95,7.13-1.59,13.85-2.22,20.35-.77,8-1.49,15.59-2.65,22a5.11,5.11,0,0,1-2,3.34c-3.43,2.94-7.32,6.27-9.93,10.23a56.29,56.29,0,0,0-3.82,7.44c-.66,1.48-1.29,2.88-1.9,4l0,.08,0,.09c-.48,1.15-1.15,2.72-.23,4.13a3.7,3.7,0,0,0,3.21,1.42h.14A7.72,7.72,0,0,0,9.49,310l-.73,2c-1.13,3-3.16,8.45-4.23,11.34l-.69,1.88,0,.08,0,.08a5.92,5.92,0,0,0,.41,4.35,3.79,3.79,0,0,0,2.34,1.83,4.57,4.57,0,0,0,4.69-1.41q-.12.6-.15.9c-.39,4,1.58,5.23,3.3,5.6a5.24,5.24,0,0,0,1.11.12,4.57,4.57,0,0,0,4.46-3.37c0-.12.11-.36.2-.68a4.13,4.13,0,0,0,3.15,2.7,4.23,4.23,0,0,0,.79.08,5,5,0,0,0,4.67-3.91c.14-.49.28-1,.42-1.52a3.82,3.82,0,0,0,3.33,2.2h.28a4.68,4.68,0,0,0,4.5-4.35c.16-1.2,2.71-15.67,3.91-20.39A47.63,47.63,0,0,0,42.31,301a54.92,54.92,0,0,0,.19-6.82c-.1-2.13-.3-6.56.25-9,1.22-5.47,4-12.14,6.85-19.19,4.37-10.64,9.32-22.69,9.85-33.14,0-.49,0-1,.08-1.61a222,222,0,0,1,5.52-40.08c1.41-6.33,2-9.08,2.21-12.4,2.85,9.69,6.62,24.66,6.87,28.9.28,4.77.42,11.31.57,17.63.07,3.43.14,6.66.24,9.63.37,12.14-2.19,27.58-3.72,36.8-.29,1.78-.54,3.31-.72,4.49-2.25,14.94-4.87,37.81-1.7,63.74,2.61,32.58,7.63,50.28,10.63,60.25,1.2,4,2.07,6.91,2.2,9a36.86,36.86,0,0,1-.1,7.31c-.15,1-.38,2.39-.65,4-1,6.32-2.64,15.89-2.73,19.89-.3,13.76,1.86,25.42,4.36,36.6,1,4.68,2.13,9.52,3.13,15,.14.8.56,2.34,1.21,4.67a204.11,204.11,0,0,1,4.75,20.18,80.33,80.33,0,0,1,.67,10.7c-.07,2.44-.18,4.18-1,5.81-.67,1.27-2.93,2.58-5.32,4a43.12,43.12,0,0,0-8.46,5.92,5.07,5.07,0,0,0-1.29,4.5A7,7,0,0,0,80.45,553l.13.06.13,0c3.77,1.14,7,2.15,9.86,3,9.46,2.94,14.22,4.42,17.58,4.42a9.33,9.33,0,0,0,1.2-.07c3.21-.38,6.7-1.38,8.71-4.94,2.47,4.23,6.75,4.73,8.52,4.94a9.33,9.33,0,0,0,1.2.07c3.37,0,8.12-1.48,17.59-4.42,2.82-.88,6.08-1.89,9.85-3l.13,0,.13-.06a7,7,0,0,0,4.28-5.17,5,5,0,0,0-1.28-4.5,43.47,43.47,0,0,0-8.47-5.92c-2.39-1.39-4.64-2.7-5.31-4-.86-1.63-1-3.37-1-5.83a80.45,80.45,0,0,1,.68-10.68,198.58,198.58,0,0,1,4.75-20.18c.64-2.33,1.06-3.87,1.21-4.67,1-5.53,2.07-10.37,3.12-15,2.5-11.18,4.66-22.84,4.36-36.6-.09-4-1.67-13.57-2.72-19.89-.27-1.63-.5-3-.66-4a37,37,0,0,1-.09-7.31c.12-2.11,1-5,2.2-9,3-10,8-27.67,10.62-60.25,3.17-25.93.55-48.8-1.7-63.74-.17-1.18-.43-2.71-.72-4.49-1.53-9.22-4.09-24.66-3.71-36.8.09-3,.16-6.2.24-9.63.14-6.32.28-12.86.56-17.63.24-4.09,4.23-19.82,6.58-27.66.53,3.44,1.32,5.85,2.5,11.16a222,222,0,0,1,5.52,40.08c0,.58,0,1.12.08,1.61.54,10.45,5.49,22.5,9.85,33.14,2.9,7.05,5.64,13.72,6.85,19.19.55,2.47.35,6.9.25,9a56.94,56.94,0,0,0,.19,6.82,47.63,47.63,0,0,0,1.12,6.54c1.2,4.72,3.75,19.19,3.91,20.39a4.69,4.69,0,0,0,4.51,4.35h.28a3.84,3.84,0,0,0,3.33-2.2c.14.52.27,1,.42,1.52a5,5,0,0,0,4.67,3.91,4.22,4.22,0,0,0,3.93-2.78c.09.32.16.56.2.68a4.59,4.59,0,0,0,4.46,3.37,5.33,5.33,0,0,0,1.12-.12c1.71-.37,3.68-1.64,3.3-5.6,0-.2-.08-.5-.16-.9a4.59,4.59,0,0,0,3.43,1.58,4.67,4.67,0,0,0,1.27-.17,3.79,3.79,0,0,0,2.33-1.83,5.83,5.83,0,0,0,.41-4.35l0-.08,0-.08c-.06-.14-.32-.84-.7-1.88-1.07-2.89-3.1-8.35-4.22-11.34-.26-.69-.51-1.34-.73-2a7.69,7.69,0,0,0,5.68,2.9h.13a3.71,3.71,0,0,0,3.22-1.42C236.39,310.07,235.73,308.5,235.24,307.35ZM118,537.17a42.64,42.64,0,0,1-2-11.62c0-1.59.06-3.39.13-5.65.13-4.32.31-10.22.24-19.13.17-4.69.35-10.16.55-16.58.36-4.18.76-9.66,1.09-15.35.32,5.69.72,11.17,1.08,15.35.2,6.41.39,11.87.55,16.56-.07,7.9,0,13.5,0,17.59,0,2.94.05,5.26,0,7.22A45.53,45.53,0,0,1,118,537.17ZM116.57,387.6c.62-5.19,1.07-10.62,1.38-16.21.32,5.52.77,10.91,1.39,16.06,0,2.8,0,7.5.36,12.51a114.22,114.22,0,0,1-.81,23.38c-.37,2.59-.67,5.3-.92,8.18-.26-3-.58-5.75-1-8.41a108.51,108.51,0,0,1-.89-22c.24-4.09.32-8,.37-10.59C116.51,389.22,116.54,387.89,116.57,387.6Zm115.64-76.9h-.08c-3.15,0-5.1-3.57-5.75-4.53-.46-.68-3.61-6.29-4.88-6.59h-.06c-1.27,0,2.88,11.07,3.67,13.17,1.53,4.06,4.73,12.7,4.92,13.22.36,1.24.12,3.1-1.19,3.44a2.47,2.47,0,0,1-.7.1c-1,0-1.85-.63-2.59-2s-5.51-14.24-6.46-16.74a.47.47,0,0,0-.45-.29.63.63,0,0,0-.19,0l-.93.32a.45.45,0,0,0-.3.54c.79,2.61,5.28,18,5.45,19.84.2,2-.22,2.95-1.56,3.24a3.8,3.8,0,0,1-.66.07,2.4,2.4,0,0,1-2.36-1.83c-.4-1.3-4.75-16.65-5.6-19.56a.57.57,0,0,0-.55-.38.36.36,0,0,0-.14,0l-1,.14a.51.51,0,0,0-.42.61c.55,2.41,3.09,14,3.5,16.86a2.31,2.31,0,0,1-1.63,2.83l-.37,0a2.89,2.89,0,0,1-2.56-2.3c-1.81-6.35-3.42-15.62-3.71-17.32a.5.5,0,0,0-.4-.38l-1.19-.14h-.1a.47.47,0,0,0-.47.53c.16,2.77,1.58,10.4,1.63,13.68,0,1.84-.55,2.64-1.77,2.72h-.13a2.52,2.52,0,0,1-2.32-2.44c-.17-1.23-2.74-15.8-4-20.63a44.59,44.59,0,0,1-1.06-6.18,49.15,49.15,0,0,1-.18-6.54c.11-2.64.29-6.92-.31-9.6-3.14-14.17-15.79-35.19-16.65-52A226.74,226.74,0,0,0,173,190.62c-1.69-7.58-2.57-11.31-3-15h0a53.64,53.64,0,0,0,2.18-6.54c.31-1.2.62-2.4.84-3.55s.39-2.22.51-3.15a25.59,25.59,0,0,0,.18-3.13.75.75,0,0,0-.61-.72.74.74,0,0,0-.86.61h0l-.14.8c-.09.51-.23,1.24-.44,2.11s-.45,1.88-.77,3-.65,2.23-1,3.37-.77,2.28-1.13,3.35-.73,2.06-1,2.91-.54,1.56-.72,2.06l-.26.8a1,1,0,0,0-.05.39c-2.39,7.59-6.84,25.18-7.1,29.53-.43,7.36-.54,18.78-.81,27.32-.45,14.78,3.39,34.52,4.47,41.69,2.78,18.54,4.56,39.68,1.68,63.19-3.71,46.33-12.37,61.5-12.83,69.36a39.8,39.8,0,0,0,.11,7.78c.75,4.81,3.25,18.76,3.36,23.62.42,19.17-4.08,32.38-7.45,51.21-.42,2.31-4.31,14.56-6,24.93a84.71,84.71,0,0,0-.69,11c.07,2.51.17,4.68,1.29,6.79,1.83,3.49,8.78,5.33,14.21,10.47,1.19,1.12,1.08,4.52-2.38,6.06-16.09,4.88-22.84,7.36-26.8,7.36a7.07,7.07,0,0,1-.94-.06c-4.09-.48-8.6-2.14-8.41-11.47a28.66,28.66,0,0,1,1.23-7.57,48,48,0,0,0,2.19-13.6c.09-4.76-.17-11.29,0-24.88-.17-4.71-.36-10.2-.56-16.66-.87-10-2.07-31.62-1.75-41a184.21,184.21,0,0,1,1.57-19.42,113.79,113.79,0,0,0,.84-23.55c-.36-5.44-.4-10.36-.36-12.76-3.3-27-1.72-61.3-1.69-87.19l.14.18a11.6,11.6,0,0,0,1.08,1.17,12.72,12.72,0,0,0,1.34,1.14c.47.39,1,.7,1.56,1.07s1.14.66,1.76.94a25.89,25.89,0,0,0,4,1.57,35.82,35.82,0,0,0,4.43,1.07c.76.11,1.57.26,2.33.32l1.13.1.6.05.59,0a33.47,33.47,0,0,0,4.7-.08,28.76,28.76,0,0,0,4.53-.79,21.82,21.82,0,0,0,4.08-1.45,19.78,19.78,0,0,0,3.34-2,18.57,18.57,0,0,0,4.06-4.13,12.34,12.34,0,0,0,.87-1.32l.27-.48a.66.66,0,0,0-.13-.83.65.65,0,0,0-.93.06l-.37.41c-.24.26-.57.69-1,1.11s-1,1-1.66,1.56a20.59,20.59,0,0,1-2.39,1.72,22,22,0,0,1-3.07,1.62,25.2,25.2,0,0,1-3.68,1.22,25.8,25.8,0,0,1-4.13.67,37.13,37.13,0,0,1-4.36.1l-.55,0-.53,0L136.7,305c-.75-.06-1.43-.17-2.15-.25a33.7,33.7,0,0,1-4.14-.87,23.89,23.89,0,0,1-3.69-1.33c-.58-.24-1.09-.55-1.62-.8s-1-.58-1.4-.9a12.92,12.92,0,0,1-2.16-1.87,9.21,9.21,0,0,1-.74-.9c-.22-.29-.36-.58-.52-.83a5.65,5.65,0,0,1-.5-1.24l-.14-.46s-.31-2.41-.34-3.86c-.07-2.53-.16-5.91-.25-9.28l-.44-13.5a.68.68,0,0,0-.66-.65.69.69,0,0,0-.7.65s-.21,6.75-.43,13.5c-.09,3.37-.19,6.75-.26,9.28a35.09,35.09,0,0,1-.4,4.32,6.37,6.37,0,0,1-.51,1.24c-.16.25-.3.54-.51.83a11.16,11.16,0,0,1-.75.9,12.16,12.16,0,0,1-2.16,1.87c-.42.32-.92.58-1.4.9s-1,.56-1.61.8a24.4,24.4,0,0,1-3.7,1.33,32.94,32.94,0,0,1-4.14.87c-.71.08-1.39.19-2.15.25l-1.13.09-.54,0-.55,0a37.13,37.13,0,0,1-4.36-.1,26,26,0,0,1-4.13-.67,25.2,25.2,0,0,1-3.68-1.22,21.36,21.36,0,0,1-3.06-1.62,19.77,19.77,0,0,1-2.39-1.72c-.66-.59-1.24-1.11-1.67-1.56s-.77-.85-1-1.11l-.36-.41a.66.66,0,0,0-1.07.77s.09.17.28.48a11.91,11.91,0,0,0,.86,1.32,18.8,18.8,0,0,0,4.06,4.13,20.19,20.19,0,0,0,3.34,2,22.07,22.07,0,0,0,4.08,1.45,29,29,0,0,0,4.53.79,33.5,33.5,0,0,0,4.7.08l.59,0,.6-.05,1.14-.1c.75-.06,1.56-.21,2.33-.32a36.1,36.1,0,0,0,4.42-1.07,25.89,25.89,0,0,0,4-1.57c.62-.28,1.2-.64,1.76-.94s1.09-.68,1.57-1.07a13.68,13.68,0,0,0,1.33-1.14,11.74,11.74,0,0,0,1.09-1.17l.13-.18c0,25.94,1.51,60.4-1.68,87.19-.13,1-.08,7.1-.47,13.64a110.31,110.31,0,0,0,.91,22.46,179.48,179.48,0,0,1,1.6,19.63c.32,9.38-.88,31-1.75,41-.2,6.47-.39,12-.55,16.68.11,13.58-.37,20.1-.37,24.86a46.25,46.25,0,0,0,2.46,13.46,29.23,29.23,0,0,1,1.31,7.69c.29,9.67-4.32,11-8.44,11.49a7.07,7.07,0,0,1-.94.06c-4,0-10.71-2.48-26.8-7.36C77.9,549.4,77.79,546,79,544.88c5.43-5.14,12.38-7,14.22-10.47,1.11-2.11,1.21-4.28,1.28-6.79a83,83,0,0,0-.69-11c-1.67-10.37-5.56-22.62-6-24.93-3.38-18.83-7.88-32-7.45-51.21.1-4.86,2.6-18.81,3.35-23.62a40.5,40.5,0,0,0,.12-7.78c-.47-7.86-9.13-23-12.84-69.36-2.87-23.51-1.1-44.65,1.69-63.19,1.07-7.17,4.92-26.91,4.46-41.69-.27-8.54-.38-20-.81-27.32C76,202.31,71.24,184,68.46,175a16.36,16.36,0,0,0-.84-2.2l-.51-1.27-1.06-3.13c-.37-1.14-.71-2.29-1-3.37s-.58-2.09-.77-3-.35-1.6-.44-2.11-.13-.8-.13-.8h0a.73.73,0,0,0-.71-.62.75.75,0,0,0-.76.73,25.59,25.59,0,0,0,.18,3.13c.12.93.29,2,.51,3.15s.54,2.35.85,3.55c.47,1.78,1,3.53,1.58,5a85.47,85.47,0,0,1-2.43,16.48,226.74,226.74,0,0,0-5.65,42.06c-.86,16.78-13.5,37.8-16.65,52-.6,2.68-.42,7-.3,9.6a51.31,51.31,0,0,1-.19,6.54,46.11,46.11,0,0,1-1,6.18c-1.23,4.83-3.8,19.4-4,20.63A2.53,2.53,0,0,1,32.78,330h-.14c-1.21-.08-1.79-.88-1.77-2.72.05-3.28,1.47-10.91,1.64-13.68a.48.48,0,0,0-.48-.53h-.1l-1.18.14a.48.48,0,0,0-.4.38c-.3,1.7-1.91,11-3.72,17.32a2.89,2.89,0,0,1-2.55,2.3,2.43,2.43,0,0,1-.38,0,2.3,2.3,0,0,1-1.62-2.83c.4-2.82,2.94-14.45,3.49-16.86a.51.51,0,0,0-.42-.61l-1-.14a.34.34,0,0,0-.14,0,.55.55,0,0,0-.54.38c-.85,2.91-5.2,18.26-5.61,19.56a2.4,2.4,0,0,1-2.36,1.83,3.69,3.69,0,0,1-.65-.07c-1.35-.29-1.76-1.24-1.57-3.24.18-1.82,4.66-17.23,5.45-19.84a.44.44,0,0,0-.29-.54l-.94-.32a.58.58,0,0,0-.19,0,.48.48,0,0,0-.45.29c-.95,2.5-5.64,15.28-6.46,16.74s-1.59,2-2.59,2a2.52,2.52,0,0,1-.7-.1c-1.31-.34-1.55-2.2-1.19-3.44.2-.52,3.39-9.16,4.92-13.22.79-2.1,4.94-13.17,3.68-13.17h-.06c-1.28.3-4.42,5.91-4.89,6.59-.65,1-2.6,4.53-5.74,4.53H3.72c-1.83,0-1.79-.62-1-2.49,1.69-3.2,3.48-8,5.61-11.28,2.36-3.59,5.82-6.6,9.52-9.77a7.2,7.2,0,0,0,2.74-4.62c2.08-11.59,2.74-26.27,4.88-42.47,2.05-15.41,8.68-22.42,8.89-37.83,0-4.23.17-13.07.2-17.31,0-6.26.62-8.66,1.63-14.84s2.87-19.33,2.87-19.33c.75-5.83.35-15.18,2.63-20.73a31.33,31.33,0,0,1,10.59-13.61c5.81-4.12,13.9-6.13,17.75-6.89A15.23,15.23,0,0,0,74.26,108c7.21-3.88,18.25-7.54,23-9.23,1.05-.35,2.05-.66,2.86-.9,1.24-.37,2.07-.6,2.07-.6a.66.66,0,0,0,.48-.67.65.65,0,0,0-.7-.6h0s-1.9-.11-1.9-.56v-14a2,2,0,0,0-.84-1.6,27.51,27.51,0,0,1-11-18.44A211.73,211.73,0,0,1,86.38,35c0-20.25,15.23-32.37,30.39-32.78l.13,0H119l.13,0c15.16.41,30.39,12.53,30.39,32.78a145,145,0,0,1-1.78,26.37,28.4,28.4,0,0,1-11,18.44,2,2,0,0,0-.83,1.6v14c0,.45-1.91.56-1.91.56h0a.65.65,0,0,0-.22,1.27s.84.23,2.07.6c.82.24,1.81.55,2.86.9,4.74,1.69,15.77,5.35,23,9.23a15.35,15.35,0,0,0,4.23,1.54c3.85.76,11.95,2.77,17.75,6.89A31.25,31.25,0,0,1,194.24,130c2.29,5.55,1.89,14.9,2.63,20.73,0,0,1.87,13.23,2.87,19.33s1.59,8.58,1.63,14.84c0,4.24.15,13.08.21,17.31.2,15.41,6.84,22.42,8.88,37.83,2.15,16.2,2.8,30.88,4.89,42.47a7.14,7.14,0,0,0,2.73,4.62c3.7,3.17,7.16,6.18,9.53,9.77,2.12,3.23,3.92,8.08,5.6,11.28C234,310.08,234,310.66,232.21,310.7Z"/><path class="cls-3" d="M118,187.88h0c-.63,0-.64.5-.71,2.35-.33,9.2-1,32.09-.23,45.79.09,1.64.24,2.32.87,2.32h0c.64,0,.78-.69.87-2.33.34-6.26.78-20.52-.08-45.78C118.69,188.38,118.67,187.88,118,187.88Z"/><path class="cls-3" d="M107.16,168.62c0,4-6.54,10.08-9.29,12.47a.27.27,0,0,0,.28.45,25.07,25.07,0,0,0,10.38-8.41c3-4.24,1.58-20.69,1.51-23.5-.34-14.22-2-9-2-.45C108.08,157.93,107.16,168.62,107.16,168.62Z"/><path class="cls-3" d="M129.35,168.62s-.93-10.77-.93-19.69c0-8.41-1.6-13.37-1.94.7-.07,2.81-1.52,19.26,1.51,23.5a25.07,25.07,0,0,0,10.38,8.41.27.27,0,0,0,.28-.45C135.9,178.7,129.35,172.61,129.35,168.62Z"/><path class="cls-3" d="M144.69,409.08l-.93-.44a14.8,14.8,0,0,0-7.65-2h0a9.19,9.19,0,0,0-5,2.21c-.16.13-.63.52-.35,1s1,.23,1.44,0c1.66-.71,6.92-.88,10.52.36a6.22,6.22,0,0,0,1.84.39c.43,0,.78-.11.91-.43C145.71,409.57,145,409.22,144.69,409.08Z"/><path class="cls-3" d="M91.38,410.62a6.15,6.15,0,0,0,1.84-.39c3.6-1.24,8.86-1.07,10.53-.35.47.2,1.12.47,1.43,0s-.19-.87-.35-1a9.16,9.16,0,0,0-5-2.21,14.78,14.78,0,0,0-7.63,2l-.93.44c-.28.14-1,.49-.77,1.11C90.6,410.51,91,410.62,91.38,410.62Z"/><path class="cls-3" d="M52.84,216.17c-3.48,1.74-8.05.9-9.4-.4-.58-.56-.78-.52-.46.09.71,1.32,2.06,3.38,3.68,3.67,3.23.32,4.69-1.05,7.5-3C55.33,215.67,54.22,215.48,52.84,216.17Z"/><path class="cls-3" d="M192.49,215.77c-1.35,1.3-5.91,2.14-9.4.4-1.38-.69-2.48-.5-1.31.33,2.8,2,4.26,3.35,7.49,3,1.63-.29,3-2.35,3.68-3.67C193.27,215.25,193.07,215.21,192.49,215.77Z"/></g></g></svg>