<svg xmlns="http://www.w3.org/2000/svg" width="237" height="588" style="pointer-events: none; display: block;"><defs><style>
.myRect{
z-index:999;
cursor: pointer;
  pointer-events: auto;
  fill: transparent;
}
.cls-1{fill:#f7f9f9;}.cls-2{fill:#899ba5;}.cls-3{fill:#8aa0a8;opacity:0.4;}</style></defs>
<rect class="myRect" x="76" y="0" width="85" height="120" onclick="changeSelectedOption('part',0)" />
<rect xmlns="http://www.w3.org/2000/svg" class="myRect" x="67" y="120" width="102" height="90" onclick="changeSelectedOption('part',1)"/>
<rect xmlns="http://www.w3.org/2000/svg" class="myRect" x="67" y="210" width="102" height="60" onclick="changeSelectedOption('part',2)"/>
<rect xmlns="http://www.w3.org/2000/svg" class="myRect" x="67" y="270" width="102" height="30" onclick="changeSelectedOption('part',3)"/>
<rect xmlns="http://www.w3.org/2000/svg" class="myRect" x="67" y="300" width="102" height="260" onclick="changeSelectedOption('part',5)"/>
<rect xmlns="http://www.w3.org/2000/svg" class="myRect" x="0" y="120" width="67" height="220" onclick="changeSelectedOption('part',4)"/>
<rect xmlns="http://www.w3.org/2000/svg" class="myRect" x="169" y="120" width="67" height="220" onclick="changeSelectedOption('part',4)"/>
<g id="Layer_2" data-name="Layer 2"><g id="art"><path class="cls-1" d="M234.12,307.83l0-.08c-.62-1.18-1.26-2.59-1.93-4.08a55,55,0,0,0-3.73-7.28c-2.51-3.81-6.33-7.09-9.7-10a6.19,6.19,0,0,1-2.41-4c-1.16-6.48-1.89-14.08-2.67-22.13-.62-6.48-1.26-13.19-2.21-20.3a80.82,80.82,0,0,0-4.54-17.28c-2.17-6.2-4.22-12-4.33-20.43-.06-4.23-.18-13.07-.21-17.31,0-6.1-.58-8.51-1.64-15-1-6-2.85-19.18-2.87-19.29-.23-1.81-.35-4-.47-6.29-.28-5-.59-10.74-2.22-14.69a32.38,32.38,0,0,0-10.93-14c-5.86-4.17-13.87-6.21-18.12-7.06a14.27,14.27,0,0,1-4-1.43c-6.32-3.4-15.48-6.61-20.95-8.53-.93-.33-1.75-.61-2.42-.86A2.93,2.93,0,0,1,136.88,95v-14a29.22,29.22,0,0,0,11.86-19.4A145.44,145.44,0,0,0,150.5,35c0-20.69-15.58-33.3-31.24-33.76l-2.36,0-.23,0C101,1.7,85.44,14.31,85.44,35a209.56,209.56,0,0,0,1.75,26.47A28.37,28.37,0,0,0,99.05,80.91V95a2.93,2.93,0,0,1-1.89,2.79c-.67.25-1.49.53-2.42.86-5.47,1.92-14.62,5.13-20.94,8.53a14.27,14.27,0,0,1-4,1.43c-4.26.85-12.26,2.89-18.13,7.06a32.46,32.46,0,0,0-10.93,14c-1.62,4-1.94,9.66-2.21,14.69-.13,2.3-.25,4.48-.48,6.27,0,.13-1.88,13.29-2.87,19.31-1,6.49-1.6,8.89-1.64,15,0,4.24-.15,13.08-.2,17.31-.12,8.38-2.17,14.23-4.34,20.43a80.82,80.82,0,0,0-4.54,17.28c-.94,7.11-1.59,13.82-2.21,20.31-.77,8-1.5,15.64-2.67,22.12a6.19,6.19,0,0,1-2.41,4c-3.37,2.89-7.19,6.17-9.7,10a54.26,54.26,0,0,0-3.72,7.27c-.68,1.5-1.32,2.91-2,4.17s-.86,2.18-.34,3a2.52,2.52,0,0,0,2.22.86c3.46.11,5.55-3.22,6.45-4.62.08-.13.15-.25.21-.33s.27-.43.52-.84C12,304,12.83,302.77,13.41,302A109.72,109.72,0,0,1,9.9,312.4c-1.13,3-3.15,8.46-4.22,11.34-.39,1-.65,1.74-.72,1.95a4.67,4.67,0,0,0,.29,3.4,2.58,2.58,0,0,0,1.59,1.26c1.23.33,3,.19,4.4-2.34.63-1.12,3-7.57,5.48-14.09l.86-2.32,0,0c-.94,3.15-5.15,17.59-5.34,19.52-.1,1-.36,3.71,2.34,4.29A3.43,3.43,0,0,0,18.78,333c.22-.72,1.64-5.68,3-10.47,1-3.62,2-7.16,2.5-8.73l.22,0c-.74,3.29-3,13.75-3.4,16.43a3.27,3.27,0,0,0,2.42,3.93c1.76.34,3.46-.91,4.05-3,1.61-5.62,3.07-13.53,3.68-17l.23,0c-.11,1.18-.37,2.94-.63,4.78a81.52,81.52,0,0,0-1,8.37c0,2.92,1.44,3.63,2.69,3.71a3.48,3.48,0,0,0,3.49-3.29c.16-1.21,2.73-15.77,3.94-20.52a46.2,46.2,0,0,0,1.08-6.34,54.54,54.54,0,0,0,.19-6.67c-.11-2.35-.3-6.72.28-9.34,1.24-5.58,4-12.29,6.91-19.4,4.54-11,9.24-22.49,9.76-32.73l.08-1.61a223.5,223.5,0,0,1,5.55-40.29,105,105,0,0,0,2.63-17c0-.53.08-1.07.12-1.58A5.07,5.07,0,0,0,68.22,174a1.5,1.5,0,0,1,.83,1.61c0,4.74,2,13.07,3.85,20.41,1.2,4.88,2.33,9.48,2.45,11.53.28,4.79.42,11.33.57,17.66.07,3.36.15,6.67.24,9.63.38,12.26-2.19,27.77-3.73,37-.29,1.78-.55,3.29-.72,4.47C69.47,291.22,66.86,314,70,339.75c2.6,32.48,7.59,50.1,10.58,60,1.23,4.09,2.11,7,2.25,9.29a38.73,38.73,0,0,1-.11,7.58c-.16,1-.39,2.4-.66,4-1,6.29-2.62,15.8-2.71,19.71-.3,13.62,1.85,25.21,4.34,36.32,1.05,4.69,2.13,9.54,3.13,15.1.13.74.57,2.34,1.19,4.56,2.26,8.2,7.56,27.4,4.71,33.09a63.78,63.78,0,0,1-8.69,12.79c-3,3.68-5.25,6.34-5.14,9.81.09,2.71,4.81,4.08,17.43,5.06,1.7.13,3.42.16,5.09.2s3.32.07,4.76.2l.43,0c2.87.27,6.13.58,8.09-.24a5.16,5.16,0,0,0,2.94-2.28l.08-.2c.08-.27.14-.53.19-.79a4.7,4.7,0,0,0,3.29,3.25l.15.06a9.31,9.31,0,0,0,3.41.49c1.44,0,3-.14,4.51-.28l.46-.05c1.44-.13,3.06-.16,4.77-.2s3.38-.07,5.08-.2c12.62-1,17.35-2.35,17.43-5.06.11-3.47-2.09-6.13-5.14-9.81a63.78,63.78,0,0,1-8.69-12.79c-2.85-5.69,2.45-24.89,4.72-33.09.61-2.22,1.05-3.82,1.18-4.56,1-5.56,2.09-10.42,3.14-15.11,2.48-11.1,4.63-22.69,4.33-36.31-.09-3.91-1.67-13.42-2.71-19.71-.27-1.63-.5-3-.66-4a38.9,38.9,0,0,1-.1-7.58c.13-2.25,1-5.2,2.24-9.29,3-9.93,8-27.56,10.58-60,3.16-25.8.55-48.57-1.68-63.46-.18-1.18-.43-2.69-.73-4.47-1.53-9.27-4.1-24.78-3.72-37,.09-3,.16-6.26.24-9.62.14-6.33.28-12.87.56-17.67.12-2.08,1.28-6.82,2.5-11.84,1.74-7.14,3.71-15.2,3.8-19.75a11.24,11.24,0,0,0,1.82-3.37c.15-.42.31-.85.53-1.33.08.75.15,1.68.21,2.6a106.2,106.2,0,0,0,2.63,17,222.34,222.34,0,0,1,5.55,40.29l.08,1.61c.53,10.24,5.22,21.68,9.76,32.73,2.92,7.11,5.68,13.82,6.91,19.4.59,2.62.39,7,.28,9.34a54.54,54.54,0,0,0,.19,6.67,47.5,47.5,0,0,0,1.08,6.34c1.21,4.75,3.78,19.31,3.94,20.52a3.49,3.49,0,0,0,3.5,3.29c1.24-.08,2.72-.79,2.68-3.71a84,84,0,0,0-.95-8.37c-.27-1.84-.52-3.6-.64-4.78l.23,0c.62,3.52,2.08,11.44,3.68,17,.59,2,2.29,3.3,4,3a3.27,3.27,0,0,0,2.42-3.93c-.38-2.67-2.66-13.14-3.4-16.43l.22,0c.46,1.57,1.48,5.15,2.52,8.8,1.36,4.76,2.76,9.68,3,10.4a3.42,3.42,0,0,0,4.15,2.43c2.7-.58,2.44-3.28,2.34-4.29-.19-1.92-4.4-16.37-5.33-19.52l0,0c.21.56.5,1.35.86,2.29,2.43,6.53,4.86,13,5.48,14.12,1.41,2.53,3.18,2.67,4.4,2.34a2.52,2.52,0,0,0,1.59-1.26,4.67,4.67,0,0,0,.27-3.47l-.69-1.88c-1.07-2.88-3.1-8.35-4.23-11.34-2-5.32-3-8.58-3.51-10.43.59.81,1.41,2,2.53,3.92.25.41.43.71.52.84s.13.19.21.32c.91,1.41,3,4.74,6.45,4.63a2.51,2.51,0,0,0,2.22-.86C235,310,234.63,309,234.12,307.83ZM117.83,545.37a86.58,86.58,0,0,0-1.08-11.17,37.66,37.66,0,0,1-.65-8.74c0-1.41,0-2.87-.06-4.29-.1-1.71-.2-3.28-.3-4.78-.36-5.79-.65-10.37-.65-17.58,0-5.55.17-10,.53-14.14.91-10.4,2.11-32.19,1.79-41.64A171.53,171.53,0,0,0,115.28,420a61.25,61.25,0,0,1-.62-15.65c.44-5.18.55-10.6.61-13.83,0-1.5,0-2.69.09-3,2.47-20.66,2.14-46.44,1.86-68.31-.12-9.21-.24-17.92-.14-25.75h1.77c.1,7.84,0,16.54-.16,25.74-.31,21.77-.66,47.43,1.87,68.26,0,3,0,9.8.68,16.57a61.7,61.7,0,0,1-.6,16.09,170.37,170.37,0,0,0-2.12,23c-.32,9.37.88,31.11,1.78,41.5.37,4.17.55,8.76.55,14,0,8.63-.38,13.32-.75,17.85-.12,1.58-.25,3.15-.36,4.87-.08,1.31-.09,2.6-.09,4a40.68,40.68,0,0,1-.81,9.35A85,85,0,0,0,117.83,545.37Z"/><path class="cls-2" d="M235.21,307.26l-.05-.08c-.6-1.14-1.23-2.54-1.9-4a55.12,55.12,0,0,0-3.82-7.44c-2.6-4-6.49-7.29-9.92-10.23a5.09,5.09,0,0,1-2-3.34c-1.15-6.43-1.88-14-2.65-22-.62-6.5-1.27-13.22-2.21-20.35a82.55,82.55,0,0,0-4.6-17.52c-2.14-6.1-4.16-11.86-4.27-20,0-3.18-.17-12.86-.2-17.3-.05-6.18-.6-8.63-1.67-15.18-1-6-2.84-19.15-2.86-19.28-.22-1.73-.34-3.89-.46-6.16-.29-5.14-.61-11-2.31-15.1a33.58,33.58,0,0,0-11.35-14.57c-6.05-4.29-14.25-6.39-18.59-7.25a12.83,12.83,0,0,1-3.62-1.32c-6.41-3.44-15.62-6.68-21.12-8.61l-2.42-.85A1.72,1.72,0,0,1,138.1,95V81.54A30.51,30.51,0,0,0,150,61.69,147.2,147.2,0,0,0,151.74,35C151.74,13.57,135.6.54,119.39,0A1.86,1.86,0,0,0,119,0h-2.15a1.61,1.61,0,0,0-.33,0C100.33.54,84.2,13.58,84.2,35A213.18,213.18,0,0,0,86,61.64a29.55,29.55,0,0,0,11.85,19.9V95a1.71,1.71,0,0,1-1.08,1.64l-2.41.85c-5.51,1.93-14.72,5.17-21.12,8.61a12.94,12.94,0,0,1-3.62,1.32c-4.35.86-12.55,3-18.59,7.25a33.6,33.6,0,0,0-11.36,14.57c-1.7,4.14-2,10-2.3,15.1-.13,2.27-.25,4.43-.47,6.19,0,.1-1.88,13.24-2.86,19.25-1.07,6.55-1.62,9-1.66,15.18,0,4.44-.16,14.12-.21,17.3-.11,8.19-2.13,13.95-4.26,20a82,82,0,0,0-4.6,17.52c-.95,7.13-1.59,13.85-2.22,20.35-.77,8-1.49,15.59-2.65,22a5.11,5.11,0,0,1-2,3.34c-3.43,2.94-7.32,6.27-9.93,10.23a56.29,56.29,0,0,0-3.82,7.44c-.66,1.48-1.29,2.88-1.9,4l0,.08,0,.09c-.48,1.15-1.15,2.72-.23,4.13a3.7,3.7,0,0,0,3.21,1.42h.14A7.72,7.72,0,0,0,9.49,310l-.73,2c-1.13,3-3.15,8.44-4.22,11.33-.39,1-.65,1.75-.7,1.89l0,.08,0,.08a5.92,5.92,0,0,0,.41,4.35,3.79,3.79,0,0,0,2.34,1.83,4.57,4.57,0,0,0,4.69-1.41q-.12.6-.15.9c-.39,4,1.58,5.23,3.3,5.6a5.24,5.24,0,0,0,1.11.12,4.57,4.57,0,0,0,4.46-3.37c0-.12.11-.36.2-.68a4.13,4.13,0,0,0,3.15,2.7,4.23,4.23,0,0,0,.79.08,5,5,0,0,0,4.67-3.91c.14-.49.28-1,.42-1.52a3.82,3.82,0,0,0,3.33,2.2h.28a4.68,4.68,0,0,0,4.5-4.35c.16-1.2,2.71-15.67,3.91-20.39A47.63,47.63,0,0,0,42.31,301a54.92,54.92,0,0,0,.19-6.82c-.1-2.13-.3-6.56.25-9,1.22-5.47,4-12.14,6.85-19.19,4.37-10.64,9.31-22.69,9.85-33.14,0-.49,0-1,.08-1.61a222,222,0,0,1,5.52-40.08,104.07,104.07,0,0,0,2.63-16.72,3.75,3.75,0,0,1,.14,1.21c0,4.89,2.07,13.29,3.89,20.71,1.19,4.81,2.31,9.36,2.42,11.3.28,4.77.42,11.31.57,17.63.07,3.43.14,6.66.24,9.63.37,12.14-2.19,27.58-3.72,36.8-.29,1.78-.54,3.31-.72,4.49-2.25,14.94-4.87,37.81-1.7,63.74,2.61,32.58,7.63,50.28,10.63,60.25,1.2,4,2.07,6.91,2.2,9a36.86,36.86,0,0,1-.1,7.31c-.15,1-.38,2.39-.65,4-1,6.33-2.64,15.89-2.73,19.89-.3,13.76,1.86,25.42,4.36,36.6,1,4.68,2.13,9.52,3.13,15,.14.8.57,2.34,1.21,4.67,2,7.37,7.44,26.95,4.8,32.22a62.67,62.67,0,0,1-8.54,12.56c-3.1,3.74-5.54,6.7-5.42,10.63.11,3.64,4.62,5.16,18.56,6.24,1.74.13,3.47.17,5.15.2s3.28.07,4.68.2l.42,0c1.5.14,3.18.3,4.71.3a10.13,10.13,0,0,0,3.88-.59l.09,0a7.24,7.24,0,0,0,2.8-1.78,7.2,7.2,0,0,0,2.77,1.76l.15.06a10,10,0,0,0,3.85.59c1.5,0,3.17-.16,4.64-.3l.46,0c1.4-.13,3-.16,4.68-.2s3.42-.07,5.15-.2c13.94-1.08,18.45-2.6,18.56-6.24.13-3.93-2.32-6.89-5.42-10.63a62.67,62.67,0,0,1-8.54-12.56c-2.63-5.27,2.77-24.85,4.8-32.22.65-2.33,1.07-3.87,1.22-4.67,1-5.53,2.07-10.37,3.12-15,2.5-11.18,4.66-22.84,4.36-36.6-.09-4-1.67-13.56-2.72-19.89-.27-1.63-.5-3-.66-4a37.66,37.66,0,0,1-.1-7.31c.13-2.11,1-5,2.21-9,3-10,8-27.67,10.62-60.25,3.17-25.93.55-48.8-1.7-63.74-.17-1.18-.43-2.71-.72-4.49-1.53-9.22-4.09-24.66-3.71-36.8.09-3,.16-6.2.24-9.63.14-6.32.28-12.86.56-17.63.12-2,1.26-6.66,2.47-11.62,1.8-7.39,3.84-15.76,3.84-20.39a4.21,4.21,0,0,1,.13-1.19,108.23,108.23,0,0,0,2.64,16.7,222,222,0,0,1,5.52,40.08c0,.58,0,1.12.08,1.61.54,10.45,5.49,22.5,9.85,33.14,2.9,7.05,5.64,13.72,6.85,19.19.55,2.47.35,6.9.25,9a56.94,56.94,0,0,0,.19,6.82,47.63,47.63,0,0,0,1.12,6.54c1.2,4.72,3.75,19.19,3.91,20.39a4.69,4.69,0,0,0,4.51,4.35h.28a3.84,3.84,0,0,0,3.33-2.2c.14.52.27,1,.42,1.52a5,5,0,0,0,4.67,3.91,4.22,4.22,0,0,0,3.93-2.78c.09.32.16.56.2.68a4.59,4.59,0,0,0,4.46,3.37,5.33,5.33,0,0,0,1.12-.12c1.71-.37,3.68-1.64,3.3-5.6,0-.2-.08-.5-.16-.9a4.59,4.59,0,0,0,3.43,1.58,4.67,4.67,0,0,0,1.27-.17,3.79,3.79,0,0,0,2.33-1.83,5.83,5.83,0,0,0,.41-4.35l0-.08,0-.08c-.06-.14-.32-.85-.7-1.89-1.08-2.89-3.1-8.35-4.22-11.33-.26-.69-.51-1.34-.73-2a7.69,7.69,0,0,0,5.68,2.9h.13a3.71,3.71,0,0,0,3.22-1.42c.91-1.41.25-3-.24-4.13ZM88.17,61.37A204.88,204.88,0,0,1,86.43,35c0-20.25,15.21-32.37,30.34-32.78l.13,0H119l.13,0C134.29,2.63,149.5,14.75,149.5,35a141.71,141.71,0,0,1-1.73,26.37,28.74,28.74,0,0,1-12,19.09,49.63,49.63,0,0,1-6,3.53,28.82,28.82,0,0,1-5.43,2.46c-2.32.64-10.37.64-12.68,0a32.48,32.48,0,0,1-6.28-2.9A38.18,38.18,0,0,1,95.17,76.2a27.87,27.87,0,0,1-6-10.15A26.12,26.12,0,0,1,88.17,61.37Zm30.25,463.85a41.22,41.22,0,0,1-.59,8.2,39.28,39.28,0,0,1-.51-8c0-1.42,0-2.9-.06-4.36-.1-1.71-.2-3.28-.3-4.78-.36-5.77-.65-10.33-.65-17.51,0-5.52.17-10,.52-14,.37-4.21.79-10,1.14-16,.34,5.93.75,11.63,1.12,15.82s.53,8.69.53,13.91c0,8.58-.37,13.24-.73,17.75-.13,1.55-.26,3.16-.37,4.89C118.43,522.54,118.43,523.91,118.42,525.22ZM116.57,387.6c.62-5.19,1.07-10.62,1.38-16.21.32,5.52.77,10.91,1.39,16.06,0,1.36-.07,8.55.68,16.62a60.55,60.55,0,0,1-.58,15.77c-.62,3.6-1.11,7.48-1.47,11.7-.37-4.25-.87-8.15-1.49-11.77a60.66,60.66,0,0,1-.61-15.34c.45-5.23.56-10.67.62-13.92C116.51,389.22,116.54,387.89,116.57,387.6Zm115.64-76.9h-.08c-3.15,0-5.1-3.57-5.75-4.53-.46-.68-3.61-6.29-4.88-6.59h-.06c-1.27,0,2.88,11.07,3.67,13.17,1.53,4.06,4.73,12.7,4.92,13.22.36,1.24.12,3.1-1.19,3.44a2.47,2.47,0,0,1-.7.1c-1,0-1.85-.63-2.59-2s-5.51-14.24-6.46-16.74a.47.47,0,0,0-.45-.29.63.63,0,0,0-.19,0l-.93.32a.45.45,0,0,0-.3.54c.79,2.61,5.28,18,5.45,19.84.2,2-.22,2.95-1.56,3.24a3.8,3.8,0,0,1-.66.07,2.4,2.4,0,0,1-2.36-1.83c-.4-1.3-4.75-16.65-5.6-19.56a.57.57,0,0,0-.55-.38.36.36,0,0,0-.14,0l-1,.14a.51.51,0,0,0-.42.61c.55,2.41,3.09,14,3.5,16.86a2.31,2.31,0,0,1-1.63,2.83l-.37,0a2.89,2.89,0,0,1-2.56-2.3c-1.81-6.35-3.42-15.62-3.71-17.32a.5.5,0,0,0-.4-.38l-1.19-.14h-.1a.47.47,0,0,0-.47.53c.16,2.77,1.58,10.4,1.63,13.68,0,1.84-.55,2.64-1.77,2.72h-.13a2.52,2.52,0,0,1-2.32-2.44c-.17-1.23-2.74-15.8-4-20.63a44.59,44.59,0,0,1-1.06-6.18,49.15,49.15,0,0,1-.18-6.54c.11-2.64.29-6.92-.31-9.6-3.14-14.17-15.79-35.19-16.65-52A226.74,226.74,0,0,0,173,190.62a132.81,132.81,0,0,1-2.87-19.89c0-.11.08-.22.11-.33a28.62,28.62,0,0,0,1-6c.11-1.41.22-2.19.22-2.19a.65.65,0,0,0-1.27-.26s-.22.83-.48,2.25a36.31,36.31,0,0,1-1.21,5.61,10.9,10.9,0,0,1-1.69,3.21,10.67,10.67,0,0,1-3.05,2.6,17.35,17.35,0,0,1-4.1,1.66c-.75.2-1.5.38-2.25.52l-1.2.2c-.36.07-.78.12-1.17.17a61.13,61.13,0,0,1-9.39.42c-1.51,0-3-.11-4.33-.24s-2.66-.31-3.84-.48a30.54,30.54,0,0,1-5.58-1.37,15.74,15.74,0,0,1-1.46-.6l-.52-.26a.58.58,0,0,0-.73.18.58.58,0,0,0,.14.8l.49.33a14.14,14.14,0,0,0,1.52.86,26.16,26.16,0,0,0,5.77,1.93,36.15,36.15,0,0,0,4,.68c1.42.17,2.92.32,4.48.38a61.07,61.07,0,0,0,9.76-.38c.42-.06.81-.11,1.26-.19l1.2-.22c.85-.17,1.67-.37,2.48-.6a18.87,18.87,0,0,0,4.57-2c.34-.22.68-.45,1-.69-.5,8.15-6,25.83-6.26,30.75-.43,7.36-.54,18.78-.81,27.32-.45,14.78,3.39,34.52,4.47,41.69,2.78,18.54,4.56,39.68,1.68,63.19-3.71,46.33-12.37,61.5-12.83,69.36a39.8,39.8,0,0,0,.11,7.78c.75,4.81,3.25,18.76,3.36,23.62.42,19.17-4.08,32.38-7.45,51.21-.64,3.56-9.57,30.77-5.82,38.27,6.2,12.4,13.91,16.26,13.73,22.13,0,.73-.76,1.32-2,1.83a1.38,1.38,0,0,1-1.85-1,5,5,0,0,0-.65-1.62c-.31-.49-.9-1.26-1.39-1s-.2,1.07-.12,1.34a6.45,6.45,0,0,1,.18,2.27,1.37,1.37,0,0,1-1.15,1.27l-1.11.17a1.77,1.77,0,0,1-2-1.47,4.85,4.85,0,0,0-.69-1.82c-.3-.48-.89-1.25-1.38-1s-.21,1.07-.12,1.35a6.55,6.55,0,0,1,.17,2.3,1.37,1.37,0,0,1-1.23,1.28l-1.22.11a1.82,1.82,0,0,1-2-1.56,6.12,6.12,0,0,0-.9-2.62c-.36-.57-1.06-1.48-1.61-1.23-.36.17-.39.68-.11,1.57a6.72,6.72,0,0,1,.24,2,2.19,2.19,0,0,1-2.13,2.21l-1.75,0a2.16,2.16,0,0,1-2.19-1.91c-.17-1.37-.56-2.44-.75-3.71-.3-2-2.48-2-2.76,0a3.39,3.39,0,0,0,.4,1.87,3.21,3.21,0,0,1-3,4.24h-.22a8.18,8.18,0,0,1-3-.42c-1.46-.61-2.79-1.06-3.11-3.87,0-1.46,0-3.11,0-3.11.11-2.64.46-11.56,1.16-14.68,1.19-5.28.67-9.38.93-13.47.43-6.69,1.11-11.14,1.11-22.83,0-5.1-.23-10.19-.65-15.27-.86-10.27-2-31.05-1.68-40.17a167.17,167.17,0,0,1,2.07-22.6,63.1,63.1,0,0,0,.66-16.41c-.65-6.91-.73-13.74-.68-16.72-3.55-29.05-1.45-66.3-1.7-92.86h.55c8-.35,9.27-6.95,9.28-7a.56.56,0,0,0-.37-.63.56.56,0,0,0-.67.3c-1.77,3.8-6.62,5.29-8.82,5.29,0,0-3.71,0-3.71,0-2.42,0-7.27-1.71-8.81-5.28a.55.55,0,0,0-1,.32c0,.06,1.27,6.66,9.29,7h.54c-.25,26.57,1.74,64.08-1.69,92.86-.15,1.21,0,9.25-.71,16.91a62.82,62.82,0,0,0,.64,16,165.53,165.53,0,0,1,2.11,22.85c.31,9.07-.8,29.69-1.66,40-.36,4.36-.66,11.51-.66,15.89,0,9.07.47,14.16,1,22.28.24,4.19-.33,8.5.73,13.19.82,3.65,1.07,12.28,1.28,14.4,0,2.11.28,3.78-.28,5.77a4.36,4.36,0,0,1-2.54,1.88,8.28,8.28,0,0,1-3,.42H111a3.21,3.21,0,0,1-3-4.24,3.39,3.39,0,0,0,.4-1.87c-.28-2-2.46-2-2.76,0-.19,1.27-.58,2.35-.75,3.71a2.15,2.15,0,0,1-2.19,1.91l-1.75,0a2.19,2.19,0,0,1-2.13-2.21,6.72,6.72,0,0,1,.25-2c.28-.89.24-1.4-.12-1.57-.55-.26-1.24.66-1.61,1.23a6.1,6.1,0,0,0-.89,2.63,1.83,1.83,0,0,1-2,1.55l-1.23-.11A1.37,1.37,0,0,1,92,554.6a6.79,6.79,0,0,1,.17-2.3c.09-.28.36-1.12-.12-1.35s-1.07.55-1.38,1A4.85,4.85,0,0,0,90,553.8a1.77,1.77,0,0,1-2,1.47l-1.11-.17a1.37,1.37,0,0,1-1.15-1.27,6.7,6.7,0,0,1,.18-2.27c.09-.27.36-1.12-.12-1.34s-1.08.54-1.38,1a4.56,4.56,0,0,0-.65,1.62,1.39,1.39,0,0,1-1.86,1c-1.24-.51-2-1.1-2-1.83-.18-5.87,7.53-9.73,13.73-22.13,3.75-7.5-5.18-34.71-5.81-38.27-3.38-18.83-7.88-32-7.45-51.21.1-4.86,2.6-18.81,3.35-23.62a40.5,40.5,0,0,0,.12-7.78c-.47-7.86-9.13-23-12.84-69.36-2.87-23.51-1.1-44.65,1.69-63.19,1.07-7.17,4.92-26.91,4.46-41.69-.27-8.54-.38-20-.81-27.32-.29-4.93-5.77-22.33-6.26-30.75.32.24.66.47,1,.69a18.7,18.7,0,0,0,4.57,2c.8.23,1.62.43,2.47.6l1.21.22c.44.08.83.13,1.25.19a61.07,61.07,0,0,0,9.76.38c1.56-.06,3.06-.21,4.48-.38a35.75,35.75,0,0,0,4-.68,25.8,25.8,0,0,0,5.77-1.93,13.2,13.2,0,0,0,1.52-.86l.49-.33a.57.57,0,0,0,.18-.73.56.56,0,0,0-.76-.25l-.53.26a15.74,15.74,0,0,1-1.46.6,30.62,30.62,0,0,1-5.57,1.37c-1.19.17-2.47.37-3.84.48s-2.83.2-4.33.24a61.26,61.26,0,0,1-9.4-.42c-.39,0-.8-.1-1.16-.17l-1.2-.2c-.76-.14-1.51-.32-2.25-.52a17,17,0,0,1-4.1-1.66,10.53,10.53,0,0,1-3-2.6,10.67,10.67,0,0,1-1.69-3.21,37.75,37.75,0,0,1-1.22-5.61c-.26-1.42-.48-2.24-.48-2.24a.64.64,0,0,0-.72-.49.65.65,0,0,0-.55.74s.11.78.22,2.19a28.62,28.62,0,0,0,1,6c0,.11.08.22.11.33a131.57,131.57,0,0,1-2.87,19.89,226.74,226.74,0,0,0-5.65,42.06c-.86,16.78-13.5,37.8-16.65,52-.6,2.68-.42,7-.3,9.6a51.31,51.31,0,0,1-.19,6.54,46.38,46.38,0,0,1-1,6.18c-1.23,4.83-3.8,19.4-4,20.63A2.53,2.53,0,0,1,32.78,330h-.14c-1.21-.08-1.79-.88-1.77-2.72.05-3.28,1.47-10.91,1.64-13.68a.48.48,0,0,0-.48-.53h-.1l-1.18.14a.48.48,0,0,0-.4.38c-.3,1.7-1.91,11-3.72,17.32a2.89,2.89,0,0,1-2.55,2.3,2.43,2.43,0,0,1-.38,0,2.3,2.3,0,0,1-1.62-2.83c.4-2.82,2.94-14.45,3.49-16.86a.51.51,0,0,0-.42-.61l-1-.14a.34.34,0,0,0-.14,0,.55.55,0,0,0-.54.38c-.85,2.91-5.21,18.26-5.61,19.56a2.4,2.4,0,0,1-2.36,1.83,3.69,3.69,0,0,1-.65-.07c-1.35-.29-1.76-1.24-1.57-3.24.18-1.82,4.66-17.23,5.45-19.84a.44.44,0,0,0-.29-.54l-.94-.32a.58.58,0,0,0-.19,0,.48.48,0,0,0-.45.29c-.95,2.5-5.64,15.28-6.46,16.74s-1.59,2-2.59,2a2.52,2.52,0,0,1-.7-.1c-1.31-.34-1.55-2.2-1.19-3.44.2-.52,3.39-9.16,4.92-13.22.79-2.1,4.94-13.17,3.68-13.17h-.06c-1.28.3-4.42,5.91-4.89,6.59-.65,1-2.6,4.53-5.74,4.53H3.72c-1.83,0-1.79-.62-1-2.49,1.69-3.2,3.48-8,5.61-11.28,2.36-3.59,5.82-6.6,9.52-9.77a7.2,7.2,0,0,0,2.74-4.62c2.08-11.59,2.74-26.27,4.88-42.47,2.05-15.41,8.68-22.42,8.89-37.83,0-4.23.17-13.07.2-17.31,0-6.26.62-8.66,1.63-14.84s2.87-19.33,2.87-19.33c.75-5.83.35-15.18,2.63-20.73a31.33,31.33,0,0,1,10.59-13.61c4.73-3.36,11-5.31,15.2-6.33h.06l.65,0,1.7-.06c1.42,0,3.32,0,5.25,0s3.87,0,5.32-.12l2.42-.17a.79.79,0,0,0,.74-.83.79.79,0,0,0-.83-.76s-3.8.17-7.6,0l-1.06,0,.13-.07c7.33-3.94,18.64-7.67,23.23-9.32A3.92,3.92,0,0,0,100,95V83c3.43,2.19,9,5,11,5.56a32.38,32.38,0,0,0,6.93.56,32.21,32.21,0,0,0,6.92-.56c2-.56,7.57-3.37,11-5.56V95a3.91,3.91,0,0,0,2.54,3.72c4.59,1.65,15.9,5.38,23.23,9.32l.14.07-1.06,0c-3.81.19-7.6,0-7.6,0a.8.8,0,0,0-.84.74.79.79,0,0,0,.74.85l2.42.17c1.45.08,3.39.12,5.32.12s3.84,0,5.25,0l1.7.06.66,0c4.3,1,10.53,3,15.25,6.32A31.25,31.25,0,0,1,194.24,130c2.29,5.55,1.89,14.9,2.63,20.73,0,0,1.87,13.23,2.87,19.33s1.59,8.58,1.63,14.84c0,4.24.15,13.08.21,17.31.2,15.41,6.84,22.42,8.88,37.83,2.15,16.2,2.8,30.88,4.89,42.47a7.14,7.14,0,0,0,2.73,4.62c3.7,3.17,7.16,6.18,9.53,9.77,2.12,3.23,3.92,8.08,5.6,11.28C234,310.08,234,310.66,232.21,310.7Z"/><path class="cls-3" d="M104.71,406c-1.77,1.4-7.33,1.86-11.29-.64-1.57-1-2.92-.89-1.62.24,3.12,2.71,4.7,4.53,8.61,4.53,2-.16,3.83-2.46,4.84-4C105.71,405.5,105.47,405.44,104.71,406Z"/><path class="cls-3" d="M28.35,289.9a.54.54,0,0,0-.56.4c-1.61,5.79-5.92,9.54-9,11.85a.56.56,0,0,0-.14.74.59.59,0,0,0,.47.26.51.51,0,0,0,.26-.07,27.44,27.44,0,0,0,7-5.45,9.39,9.39,0,0,0,2.5-7.27A.54.54,0,0,0,28.35,289.9Z"/><path class="cls-3" d="M135.52,410.16c3.91,0,5.49-1.82,8.61-4.53,1.3-1.13,0-1.23-1.61-.24-4,2.5-9.52,2-11.3.64-.76-.59-1-.53-.53.17C131.69,407.7,133.54,410,135.52,410.16Z"/><path class="cls-3" d="M208.15,290.3a.55.55,0,0,0-.56-.4.55.55,0,0,0-.52.46,9.43,9.43,0,0,0,2.5,7.27,27.24,27.24,0,0,0,7,5.45.47.47,0,0,0,.25.07.55.55,0,0,0,.33-1C214.06,299.84,209.75,296.09,208.15,290.3Z"/><path class="cls-2" d="M118,237.71c-1.83,0-3.31.88-3.31,2s1.48,2,3.31,2,3.3-.89,3.3-2S119.79,237.71,118,237.71Z"/></g></g></svg>